<svg width="246" height="247" viewBox="0 0 246 247" fill="none" xmlns="http://www.w3.org/2000/svg">
<g filter="url(#filter0_i_2031_757)">
<path fill-rule="evenodd" clip-rule="evenodd" d="M140.965 25.0489L124.257 8.79164L127.743 5.20801L148.035 24.9507L128.056 45.4998H104V40.4998H125.944L140.965 25.0489ZM109.168 22.701L96.168 8.70095L99.832 5.29869L112.832 19.2987L109.168 22.701ZM72.5 13.4998H77.5V65.9222L93.9939 81.4998H128.048L158.5 112.477V189.5H153.5V114.523L125.952 86.4998H92.0061L72.5 68.0774V66.9998H75C72.5 66.9998 72.5 67.0001 72.5 66.9998V13.4998ZM164.5 13.4998V32.5479L133.523 62.9998H104V57.9998H131.477L159.5 30.4517V13.4998H164.5ZM184 53.494V26.9998H189V55.5056L177 68.0056V118.5H172V65.994L184 53.494ZM40.2678 37.7321L53 50.4643V65.8705L73.1526 83.6239L69.8474 87.3757L48 68.1292V52.5354L36.7322 41.2676L40.2678 37.7321ZM211 42.9998V55.4535L197.865 70.1649L194.135 66.8348L206 53.5462V42.9998H211ZM157.863 57.6106L161.137 61.389L153.705 67.8307L153.5 68.0354V76.9643L160.268 83.7321L156.732 87.2676L148.5 79.0354V65.9643L150.295 64.169L157.863 57.6106ZM64.0445 102L24.2786 61.7429L20.7214 65.2567L61.9555 107H117.448L137.5 127.519V171.5H142.5V125.481L119.552 102H64.0445ZM221.761 63.2033L225.239 66.7963L195 96.0594V131.054L175.5 150.054V206H170.5V147.945L190 128.945V93.9402L221.761 63.2033ZM12.2925 89.3259L15.7075 85.6738L53.4867 121H104V126H51.5133L12.2925 89.3259ZM232.232 85.7321L235.768 89.2676L213 112.035V123.5H208V109.964L232.232 85.7321ZM235.479 119.057L241.768 112.768L238.232 109.232L230.521 116.943L230.052 139.5H208.507L189.5 157.421V217.5H194.5V159.579L210.493 144.5H234.948L235.479 119.057ZM9.5 136.091V113.5H4.5V137.909L20.5837 157.105L24.4163 153.894L9.5 136.091ZM80.7168 185.752L24.2168 128.252L27.7832 124.748L84.2832 182.248L80.7168 185.752ZM68.5 139.5H90V159.5H85V144.5H68.5V139.5ZM119.5 216.449V142H124.5V218.551L104.629 238H122V243H92.3715L119.5 216.449ZM102 210.001V146.5H107V211.999L86.8114 233.223L83.1886 229.777L102 210.001ZM213.91 157H233V162H216.09L211 167.482V187.511L217.824 194.79L214.176 198.21L206 189.488V165.518L213.91 157ZM46.2554 173.72L83.8868 210.829L70.426 227.094L66.574 223.906L77.1132 211.171L42.7446 177.28L46.2554 173.72ZM45.2505 207.786L20.7505 183.786L24.2494 180.214L48.7495 204.214L45.2505 207.786ZM137.5 196.035L171.753 229.717L168.247 233.282L142.5 207.964V240.5H137.5V196.035Z" fill="#A03EE9"/>
<rect x="99" y="55" width="10" height="10" rx="5" fill="#A03EE9"/>
<path d="M106.5 60C106.5 61.3807 105.381 62.5 104 62.5C102.619 62.5 101.5 61.3807 101.5 60C101.5 58.6193 102.619 57.5 104 57.5C105.381 57.5 106.5 58.6193 106.5 60Z" fill="black"/>
<rect x="154" y="54" width="10" height="10" rx="5" fill="#A03EE9"/>
<path d="M161.5 59C161.5 60.3807 160.381 61.5 159 61.5C157.619 61.5 156.5 60.3807 156.5 59C156.5 57.6193 157.619 56.5 159 56.5C160.381 56.5 161.5 57.6193 161.5 59Z" fill="black"/>
<rect x="154" y="81" width="10" height="10" rx="5" fill="#A03EE9"/>
<path d="M161.5 86C161.5 87.3807 160.381 88.5 159 88.5C157.619 88.5 156.5 87.3807 156.5 86C156.5 84.6193 157.619 83.5 159 83.5C160.381 83.5 161.5 84.6193 161.5 86Z" fill="black"/>
<rect x="107" y="17" width="10" height="10" rx="5" fill="#A03EE9"/>
<path d="M114.5 22C114.5 23.3807 113.381 24.5 112 24.5C110.619 24.5 109.5 23.3807 109.5 22C109.5 20.6193 110.619 19.5 112 19.5C113.381 19.5 114.5 20.6193 114.5 22Z" fill="black"/>
<rect x="66" y="80" width="10" height="10" rx="5" fill="#A03EE9"/>
<path d="M73.5 85C73.5 86.3807 72.3807 87.5 71 87.5C69.6193 87.5 68.5 86.3807 68.5 85C68.5 83.6193 69.6193 82.5 71 82.5C72.3807 82.5 73.5 83.6193 73.5 85Z" fill="black"/>
<rect x="135" y="166" width="10" height="10" rx="5" fill="#A03EE9"/>
<path d="M142.5 171C142.5 172.381 141.381 173.5 140 173.5C138.619 173.5 137.5 172.381 137.5 171C137.5 169.619 138.619 168.5 140 168.5C141.381 168.5 142.5 169.619 142.5 171Z" fill="black"/>
<rect x="70" y="8" width="10" height="10" rx="5" fill="#A03EE9"/>
<path d="M77.5 13C77.5 14.3807 76.3807 15.5 75 15.5C73.6193 15.5 72.5 14.3807 72.5 13C72.5 11.6193 73.6193 10.5 75 10.5C76.3807 10.5 77.5 11.6193 77.5 13Z" fill="black"/>
<rect x="34" y="34" width="10" height="10" rx="5" fill="#A03EE9"/>
<path d="M41.5 39C41.5 40.3807 40.3807 41.5 39 41.5C37.6193 41.5 36.5 40.3807 36.5 39C36.5 37.6193 37.6193 36.5 39 36.5C40.3807 36.5 41.5 37.6193 41.5 39Z" fill="black"/>
<rect x="117" y="137" width="10" height="10" rx="5" fill="#A03EE9"/>
<path d="M124.5 142C124.5 143.381 123.381 144.5 122 144.5C120.619 144.5 119.5 143.381 119.5 142C119.5 140.619 120.619 139.5 122 139.5C123.381 139.5 124.5 140.619 124.5 142Z" fill="black"/>
<rect x="99" y="142" width="10" height="10" rx="5" fill="#A03EE9"/>
<path d="M106.5 147C106.5 148.381 105.381 149.5 104 149.5C102.619 149.5 101.5 148.381 101.5 147C101.5 145.619 102.619 144.5 104 144.5C105.381 144.5 106.5 145.619 106.5 147Z" fill="black"/>
<rect x="99" y="119" width="10" height="10" rx="5" fill="#A03EE9"/>
<path d="M106.5 124C106.5 125.381 105.381 126.5 104 126.5C102.619 126.5 101.5 125.381 101.5 124C101.5 122.619 102.619 121.5 104 121.5C105.381 121.5 106.5 122.619 106.5 124Z" fill="black"/>
<rect x="64" y="137" width="10" height="10" rx="5" fill="#A03EE9"/>
<path d="M71.5 142C71.5 143.381 70.3807 144.5 69 144.5C67.6193 144.5 66.5 143.381 66.5 142C66.5 140.619 67.6193 139.5 69 139.5C70.3807 139.5 71.5 140.619 71.5 142Z" fill="black"/>
<rect x="20" y="151" width="10" height="10" rx="5" fill="#A03EE9"/>
<path d="M27.5 156C27.5 157.381 26.3807 158.5 25 158.5C23.6193 158.5 22.5 157.381 22.5 156C22.5 154.619 23.6193 153.5 25 153.5C26.3807 153.5 27.5 154.619 27.5 156Z" fill="black"/>
<rect x="39" y="170" width="10" height="10" rx="5" fill="#A03EE9"/>
<path d="M46.5 175C46.5 176.381 45.3807 177.5 44 177.5C42.6193 177.5 41.5 176.381 41.5 175C41.5 173.619 42.6193 172.5 44 172.5C45.3807 172.5 46.5 173.619 46.5 175Z" fill="black"/>
<rect x="82" y="155" width="10" height="10" rx="5" fill="#A03EE9"/>
<path d="M89.5 160C89.5 161.381 88.3807 162.5 87 162.5C85.6193 162.5 84.5 161.381 84.5 160C84.5 158.619 85.6193 157.5 87 157.5C88.3807 157.5 89.5 158.619 89.5 160Z" fill="black"/>
<rect x="22" y="123" width="10" height="10" rx="5" fill="#A03EE9"/>
<path d="M29.5 128C29.5 129.381 28.3807 130.5 27 130.5C25.6193 130.5 24.5 129.381 24.5 128C24.5 126.619 25.6193 125.5 27 125.5C28.3807 125.5 29.5 126.619 29.5 128Z" fill="black"/>
<rect x="78" y="179" width="10" height="10" rx="5" fill="#A03EE9"/>
<path d="M85.5 184C85.5 185.381 84.3807 186.5 83 186.5C81.6193 186.5 80.5 185.381 80.5 184C80.5 182.619 81.6193 181.5 83 181.5C84.3807 181.5 85.5 182.619 85.5 184Z" fill="black"/>
<rect x="169" y="114" width="10" height="10" rx="5" fill="#A03EE9"/>
<path d="M176.5 119C176.5 120.381 175.381 121.5 174 121.5C172.619 121.5 171.5 120.381 171.5 119C171.5 117.619 172.619 116.5 174 116.5C175.381 116.5 176.5 117.619 176.5 119Z" fill="black"/>
<rect x="151" y="184" width="10" height="10" rx="5" fill="#A03EE9"/>
<path d="M158.5 189C158.5 190.381 157.381 191.5 156 191.5C154.619 191.5 153.5 190.381 153.5 189C153.5 187.619 154.619 186.5 156 186.5C157.381 186.5 158.5 187.619 158.5 189Z" fill="black"/>
<rect x="117" y="236" width="10" height="10" rx="5" fill="#A03EE9"/>
<path d="M124.5 241C124.5 242.381 123.381 243.5 122 243.5C120.619 243.5 119.5 242.381 119.5 241C119.5 239.619 120.619 238.5 122 238.5C123.381 238.5 124.5 239.619 124.5 241Z" fill="black"/>
<rect x="135" y="236" width="10" height="10" rx="5" fill="#A03EE9"/>
<path d="M142.5 241C142.5 242.381 141.381 243.5 140 243.5C138.619 243.5 137.5 242.381 137.5 241C137.5 239.619 138.619 238.5 140 238.5C141.381 238.5 142.5 239.619 142.5 241Z" fill="black"/>
<rect x="165" y="226" width="10" height="10" rx="5" fill="#A03EE9"/>
<path d="M172.5 231C172.5 232.381 171.381 233.5 170 233.5C168.619 233.5 167.5 232.381 167.5 231C167.5 229.619 168.619 228.5 170 228.5C171.381 228.5 172.5 229.619 172.5 231Z" fill="black"/>
<rect x="235" y="106" width="10" height="10" rx="5" fill="#A03EE9"/>
<path d="M242.5 111C242.5 112.381 241.381 113.5 240 113.5C238.619 113.5 237.5 112.381 237.5 111C237.5 109.619 238.619 108.5 240 108.5C241.381 108.5 242.5 109.619 242.5 111Z" fill="black"/>
<rect x="228" y="154" width="10" height="10" rx="5" fill="#A03EE9"/>
<path d="M235.5 159C235.5 160.381 234.381 161.5 233 161.5C231.619 161.5 230.5 160.381 230.5 159C230.5 157.619 231.619 156.5 233 156.5C234.381 156.5 235.5 157.619 235.5 159Z" fill="black"/>
<rect x="211" y="191" width="10" height="10" rx="5" fill="#A03EE9"/>
<path d="M218.5 196C218.5 197.381 217.381 198.5 216 198.5C214.619 198.5 213.5 197.381 213.5 196C213.5 194.619 214.619 193.5 216 193.5C217.381 193.5 218.5 194.619 218.5 196Z" fill="black"/>
<rect x="169" y="201" width="10" height="10" rx="5" fill="#A03EE9"/>
<path d="M176.5 206C176.5 207.381 175.381 208.5 174 208.5C172.619 208.5 171.5 207.381 171.5 206C171.5 204.619 172.619 203.5 174 203.5C175.381 203.5 176.5 204.619 176.5 206Z" fill="black"/>
<rect x="187" y="212" width="10" height="10" rx="5" fill="#A03EE9"/>
<path d="M194.5 217C194.5 218.381 193.381 219.5 192 219.5C190.619 219.5 189.5 218.381 189.5 217C189.5 215.619 190.619 214.5 192 214.5C193.381 214.5 194.5 215.619 194.5 217Z" fill="black"/>
<rect x="204" y="38" width="10" height="10" rx="5" fill="#A03EE9"/>
<path d="M211.5 43C211.5 44.3807 210.381 45.5 209 45.5C207.619 45.5 206.5 44.3807 206.5 43C206.5 41.6193 207.619 40.5 209 40.5C210.381 40.5 211.5 41.6193 211.5 43Z" fill="black"/>
<rect x="191" y="63" width="10" height="10" rx="5" fill="#A03EE9"/>
<path d="M198.5 68C198.5 69.3807 197.381 70.5 196 70.5C194.619 70.5 193.5 69.3807 193.5 68C193.5 66.6193 194.619 65.5 196 65.5C197.381 65.5 198.5 66.6193 198.5 68Z" fill="black"/>
<rect x="218" y="60" width="10" height="10" rx="5" fill="#A03EE9"/>
<path d="M225.5 65C225.5 66.3807 224.381 67.5 223 67.5C221.619 67.5 220.5 66.3807 220.5 65C220.5 63.6193 221.619 62.5 223 62.5C224.381 62.5 225.5 63.6193 225.5 65Z" fill="black"/>
<rect x="229" y="83" width="10" height="10" rx="5" fill="#A03EE9"/>
<path d="M236.5 88C236.5 89.3807 235.381 90.5 234 90.5C232.619 90.5 231.5 89.3807 231.5 88C231.5 86.6193 232.619 85.5 234 85.5C235.381 85.5 236.5 86.6193 236.5 88Z" fill="black"/>
<rect x="206" y="119" width="10" height="10" rx="5" fill="#A03EE9"/>
<path d="M213.5 124C213.5 125.381 212.381 126.5 211 126.5C209.619 126.5 208.5 125.381 208.5 124C208.5 122.619 209.619 121.5 211 121.5C212.381 121.5 213.5 122.619 213.5 124Z" fill="black"/>
<rect x="80" y="226" width="10" height="10" rx="5" fill="#A03EE9"/>
<path d="M87.5 231C87.5 232.381 86.3807 233.5 85 233.5C83.6193 233.5 82.5 232.381 82.5 231C82.5 229.619 83.6193 228.5 85 228.5C86.3807 228.5 87.5 229.619 87.5 231Z" fill="black"/>
<rect x="63" y="220" width="10" height="10" rx="5" fill="#A03EE9"/>
<path d="M70.5 225C70.5 226.381 69.3807 227.5 68 227.5C66.6193 227.5 65.5 226.381 65.5 225C65.5 223.619 66.6193 222.5 68 222.5C69.3807 222.5 70.5 223.619 70.5 225Z" fill="black"/>
<rect x="158" y="9" width="10" height="10" rx="5" fill="#A03EE9"/>
<path d="M165.5 14C165.5 15.3807 164.381 16.5 163 16.5C161.619 16.5 160.5 15.3807 160.5 14C160.5 12.6193 161.619 11.5 163 11.5C164.381 11.5 165.5 12.6193 165.5 14Z" fill="black"/>
<rect x="181" y="21" width="10" height="10" rx="5" fill="#A03EE9"/>
<path d="M188.5 26C188.5 27.3807 187.381 28.5 186 28.5C184.619 28.5 183.5 27.3807 183.5 26C183.5 24.6193 184.619 23.5 186 23.5C187.381 23.5 188.5 24.6193 188.5 26Z" fill="black"/>
<rect x="16" y="176" width="10" height="10" rx="5" fill="#A03EE9"/>
<path d="M23.5 181C23.5 182.381 22.3807 183.5 21 183.5C19.6193 183.5 18.5 182.381 18.5 181C18.5 179.619 19.6193 178.5 21 178.5C22.3807 178.5 23.5 179.619 23.5 181Z" fill="black"/>
<rect x="43" y="203" width="10" height="10" rx="5" fill="#A03EE9"/>
<path d="M50.5 208C50.5 209.381 49.3807 210.5 48 210.5C46.6193 210.5 45.5 209.381 45.5 208C45.5 206.619 46.6193 205.5 48 205.5C49.3807 205.5 50.5 206.619 50.5 208Z" fill="black"/>
<rect x="10" y="83" width="10" height="10" rx="5" fill="#A03EE9"/>
<path d="M17.5 88C17.5 89.3807 16.3807 90.5 15 90.5C13.6193 90.5 12.5 89.3807 12.5 88C12.5 86.6193 13.6193 85.5 15 85.5C16.3807 85.5 17.5 86.6193 17.5 88Z" fill="black"/>
<rect x="17" y="58" width="10" height="10" rx="5" fill="#A03EE9"/>
<path d="M24.5 63C24.5 64.3807 23.3807 65.5 22 65.5C20.6193 65.5 19.5 64.3807 19.5 63C19.5 61.6193 20.6193 60.5 22 60.5C23.3807 60.5 24.5 61.6193 24.5 63Z" fill="black"/>
<rect x="121" y="1" width="10" height="10" rx="5" fill="#A03EE9"/>
<path d="M128.5 6C128.5 7.38071 127.381 8.5 126 8.5C124.619 8.5 123.5 7.38071 123.5 6C123.5 4.61929 124.619 3.5 126 3.5C127.381 3.5 128.5 4.61929 128.5 6Z" fill="black"/>
<rect x="99" y="38" width="10" height="10" rx="5" fill="#A03EE9"/>
<path d="M106.5 43C106.5 44.3807 105.381 45.5 104 45.5C102.619 45.5 101.5 44.3807 101.5 43C101.5 41.6193 102.619 40.5 104 40.5C105.381 40.5 106.5 41.6193 106.5 43Z" fill="black"/>
<rect x="1" y="108" width="10" height="10" rx="5" fill="#A03EE9"/>
<path d="M8.5 113C8.5 114.381 7.38071 115.5 6 115.5C4.61929 115.5 3.5 114.381 3.5 113C3.5 111.619 4.61929 110.5 6 110.5C7.38071 110.5 8.5 111.619 8.5 113Z" fill="black"/>
<rect x="91" y="1" width="10" height="10" rx="5" fill="#A03EE9"/>
<path d="M98.5 6C98.5 7.38071 97.3807 8.5 96 8.5C94.6193 8.5 93.5 7.38071 93.5 6C93.5 4.61929 94.6193 3.5 96 3.5C97.3807 3.5 98.5 4.61929 98.5 6Z" fill="black"/>
</g>
<defs>
<filter id="filter0_i_2031_757" x="-2" y="0" width="248" height="251" filterUnits="userSpaceOnUse" color-interpolation-filters="sRGB">
<feFlood flood-opacity="0" result="BackgroundImageFix"/>
<feBlend mode="normal" in="SourceGraphic" in2="BackgroundImageFix" result="shape"/>
<feColorMatrix in="SourceAlpha" type="matrix" values="0 0 0 0 0 0 0 0 0 0 0 0 0 0 0 0 0 0 127 0" result="hardAlpha"/>
<feOffset dx="-2" dy="10"/>
<feGaussianBlur stdDeviation="2"/>
<feComposite in2="hardAlpha" operator="arithmetic" k2="-1" k3="1"/>
<feColorMatrix type="matrix" values="0 0 0 0 0 0 0 0 0 0 0 0 0 0 0 0 0 0 0.3 0"/>
<feBlend mode="normal" in2="shape" result="effect1_innerShadow_2031_757"/>
</filter>
</defs>
</svg>
