<svg xmlns="http://www.w3.org/2000/svg" version="1.1" xmlns:xlink="http://www.w3.org/1999/xlink" xmlns:svgjs="http://svgjs.dev/svgjs" width="1000" height="1000"><style>
    #light-icon {
      display: inline;
    }
    #dark-icon {
      display: none;
    }

    @media (prefers-color-scheme: dark) {
      #light-icon {
        display: none;
      }
      #dark-icon {
        display: inline;
      }
    }
  </style><g id="light-icon"><svg xmlns="http://www.w3.org/2000/svg" version="1.1" xmlns:xlink="http://www.w3.org/1999/xlink" xmlns:svgjs="http://svgjs.dev/svgjs" width="1000" height="1000"><g><g transform="matrix(16.666666666666668,0,0,16.666666666666668,-5.684341886080802e-14,-5.684341886080802e-14)"><svg xmlns="http://www.w3.org/2000/svg" version="1.1" xmlns:xlink="http://www.w3.org/1999/xlink" xmlns:svgjs="http://svgjs.dev/svgjs" width="60" height="60"><svg width="60" height="60" viewBox="0 0 60 60" fill="none" xmlns="http://www.w3.org/2000/svg">
<path fill-rule="evenodd" clip-rule="evenodd" d="M34.2428 6.08479L30.1839 2.13565L31.0309 1.26514L35.9599 6.06094L31.1069 11.0526H25.2633V9.83805H30.5938L34.2428 6.08479ZM26.5187 5.51443L23.3608 2.11362L24.2508 1.28717L27.4087 4.68798L26.5187 5.51443ZM17.6115 3.27934H18.8261V16.0135L22.8327 19.7976H31.1049L38.5022 27.3223V46.0324H37.2876V27.8194L30.5958 21.0121H22.3498L17.6115 16.5371V16.2753H18.2188C17.6115 16.2753 17.6115 16.2754 17.6115 16.2753V3.27934ZM39.9597 3.27934V7.9064L32.4349 15.3036H25.2633V14.0891H31.9379L38.7451 7.39722V3.27934H39.9597ZM44.6965 12.9945V6.55869H45.9111V13.4832L42.9961 16.5196V28.7854H41.7815V16.031L44.6965 12.9945ZM9.78179 9.16572L12.8746 12.2586V16.001L17.77 20.3135L16.9671 21.2249L11.6601 16.5496V12.7617L8.92295 10.0246L9.78179 9.16572ZM51.2552 10.4453V13.4705L48.0645 17.0441L47.1585 16.2352L50.0406 13.0072V10.4453H51.2552ZM38.3474 13.9945L39.1428 14.9124L37.3373 16.4771L37.2876 16.5268V18.6958L38.9316 20.3398L38.0728 21.1986L36.073 19.1989V16.0237L36.5091 15.5876L38.3474 13.9945ZM15.5575 24.7773L5.89777 14.9983L5.03369 15.8519L15.0501 25.9919H28.5299L33.401 30.9762V41.6599H34.6155V30.4813L29.0412 24.7773H15.5575ZM53.8693 15.3531L54.714 16.2259L47.3686 23.3343V31.8351L42.6317 36.4505V50.0405H41.4171V35.9381L46.154 31.3228V22.8195L53.8693 15.3531ZM2.98618 21.6986L3.81573 20.8115L12.9929 29.3927H25.2633V30.6073H12.5135L2.98618 21.6986ZM56.4128 20.8256L57.2717 21.6845L51.741 27.2151V30H50.5265V26.712L56.4128 20.8256ZM57.2014 28.9207L58.7292 27.393L57.8703 26.5341L55.9973 28.4072L55.8831 33.8866H50.6497L46.0325 38.2399V52.834H47.2471V38.7641L51.132 35.1012H57.0726L57.2014 28.9207ZM2.30784 33.0586V27.5708H1.09326V33.5001L5.00023 38.1633L5.93123 37.3833L2.30784 33.0586ZM19.6075 45.122L5.88277 31.1544L6.7491 30.3031L20.4738 44.2707L19.6075 45.122ZM16.6398 33.8866H21.8625V38.7449H20.6479V35.1012H16.6398V33.8866ZM29.0285 52.5786V34.4939H30.2431V53.0894L25.416 57.8138H29.6358V59.0283H22.4386L29.0285 52.5786ZM24.7775 51.0123V35.587H25.992V51.4977L21.0879 56.6534L20.2079 55.8163L24.7775 51.0123ZM51.962 38.1376H56.5993V39.3522H52.4917L51.2552 40.6838V45.5493L52.9128 47.3174L52.0267 48.1481L50.0406 46.0296V40.2069L51.962 38.1376ZM11.2363 42.1992L20.3775 51.2134L17.1077 55.1645L16.172 54.3901L18.7321 51.2967L10.3835 43.064L11.2363 42.1992ZM10.9922 50.4743L5.04076 44.6443L5.8907 43.7767L11.8421 49.6067L10.9922 50.4743ZM33.401 47.6199L41.7215 55.8018L40.8699 56.6678L34.6155 50.5177V58.421H33.401V47.6199Z" fill="#A855F7"></path>
<rect x="24.1699" y="13.2388" width="2.42915" height="2.42915" rx="1.21457" fill="#A855F7"></rect>
<path d="M25.9919 14.4532C25.9919 14.7886 25.72 15.0605 25.3846 15.0605C25.0492 15.0605 24.7773 14.7886 24.7773 14.4532C24.7773 14.1178 25.0492 13.8459 25.3846 13.8459C25.72 13.8459 25.9919 14.1178 25.9919 14.4532Z" fill="black"></path>
<rect x="37.4087" y="12.9958" width="2.42915" height="2.42915" rx="1.21457" fill="#A855F7"></rect>
<path d="M39.2307 14.2103C39.2307 14.5457 38.9588 14.8176 38.6234 14.8176C38.288 14.8176 38.0161 14.5457 38.0161 14.2103C38.0161 13.8749 38.288 13.603 38.6234 13.603C38.9588 13.603 39.2307 13.8749 39.2307 14.2103Z" fill="black"></path>
<rect x="37.4087" y="19.5547" width="2.42915" height="2.42915" rx="1.21457" fill="#A855F7"></rect>
<path d="M39.2307 20.7692C39.2307 21.1045 38.9588 21.3764 38.6234 21.3764C38.288 21.3764 38.0161 21.1045 38.0161 20.7692C38.0161 20.4338 38.288 20.1619 38.6234 20.1619C38.9588 20.1619 39.2307 20.4338 39.2307 20.7692Z" fill="black"></path>
<rect x="26.1133" y="4.00806" width="2.42915" height="2.42915" rx="1.21457" fill="#A855F7"></rect>
<path d="M27.9353 5.22252C27.9353 5.55792 27.6634 5.82981 27.328 5.82981C26.9926 5.82981 26.7207 5.55792 26.7207 5.22252C26.7207 4.88713 26.9926 4.61523 27.328 4.61523C27.6634 4.61523 27.9353 4.88713 27.9353 5.22252Z" fill="black"></path>
<rect x="16.0322" y="19.3118" width="2.42915" height="2.42915" rx="1.21457" fill="#A855F7"></rect>
<path d="M17.8542 20.5262C17.8542 20.8616 17.5823 21.1335 17.2469 21.1335C16.9115 21.1335 16.6396 20.8616 16.6396 20.5262C16.6396 20.1908 16.9115 19.9189 17.2469 19.9189C17.5823 19.9189 17.8542 20.1908 17.8542 20.5262Z" fill="black"></path>
<rect x="32.7935" y="40.2024" width="2.42915" height="2.42915" rx="1.21457" fill="#A855F7"></rect>
<path d="M34.6155 41.4169C34.6155 41.7523 34.3436 42.0241 34.0082 42.0241C33.6728 42.0241 33.4009 41.7523 33.4009 41.4169C33.4009 41.0815 33.6728 40.8096 34.0082 40.8096C34.3436 40.8096 34.6155 41.0815 34.6155 41.4169Z" fill="black"></path>
<rect x="17.1255" y="1.82178" width="2.42915" height="2.42915" rx="1.21457" fill="#A855F7"></rect>
<path d="M18.9475 3.03624C18.9475 3.37164 18.6756 3.64353 18.3402 3.64353C18.0048 3.64353 17.7329 3.37164 17.7329 3.03624C17.7329 2.70085 18.0048 2.42896 18.3402 2.42896C18.6756 2.42896 18.9475 2.70085 18.9475 3.03624Z" fill="black"></path>
<rect x="8.38037" y="8.1377" width="2.42915" height="2.42915" rx="1.21457" fill="#A855F7"></rect>
<path d="M10.2024 9.35216C10.2024 9.68756 9.93048 9.95945 9.59508 9.95945C9.25968 9.95945 8.98779 9.68756 8.98779 9.35216C8.98779 9.01676 9.25968 8.74487 9.59508 8.74487C9.93048 8.74487 10.2024 9.01676 10.2024 9.35216Z" fill="black"></path>
<rect x="28.5425" y="33.158" width="2.42915" height="2.42915" rx="1.21457" fill="#A855F7"></rect>
<path d="M30.3645 34.3724C30.3645 34.7078 30.0926 34.9797 29.7572 34.9797C29.4218 34.9797 29.1499 34.7078 29.1499 34.3724C29.1499 34.037 29.4218 33.7651 29.7572 33.7651C30.0926 33.7651 30.3645 34.037 30.3645 34.3724Z" fill="black"></path>
<rect x="24.1699" y="34.3726" width="2.42915" height="2.42915" rx="1.21457" fill="#A855F7"></rect>
<path d="M25.9919 35.587C25.9919 35.9224 25.72 36.1943 25.3846 36.1943C25.0492 36.1943 24.7773 35.9224 24.7773 35.587C24.7773 35.2516 25.0492 34.9797 25.3846 34.9797C25.72 34.9797 25.9919 35.2516 25.9919 35.587Z" fill="black"></path>
<rect x="24.0488" y="28.7854" width="2.42915" height="2.42915" rx="1.21457" fill="#A855F7"></rect>
<path d="M25.8708 29.9999C25.8708 30.3353 25.5989 30.6072 25.2635 30.6072C24.9281 30.6072 24.6562 30.3353 24.6562 29.9999C24.6562 29.6645 24.9281 29.3926 25.2635 29.3926C25.5989 29.3926 25.8708 29.6645 25.8708 29.9999Z" fill="black"></path>
<rect x="15.5464" y="33.158" width="2.42915" height="2.42915" rx="1.21457" fill="#A855F7"></rect>
<path d="M17.3684 34.3724C17.3684 34.7078 17.0965 34.9797 16.7611 34.9797C16.4257 34.9797 16.1538 34.7078 16.1538 34.3724C16.1538 34.037 16.4257 33.7651 16.7611 33.7651C17.0965 33.7651 17.3684 34.037 17.3684 34.3724Z" fill="black"></path>
<rect x="4.8584" y="36.5586" width="2.42915" height="2.42915" rx="1.21457" fill="#A855F7"></rect>
<path d="M6.6804 37.7731C6.6804 38.1085 6.4085 38.3803 6.07311 38.3803C5.73771 38.3803 5.46582 38.1085 5.46582 37.7731C5.46582 37.4377 5.73771 37.1658 6.07311 37.1658C6.4085 37.1658 6.6804 37.4377 6.6804 37.7731Z" fill="black"></path>
<rect x="9.47363" y="41.1741" width="2.42915" height="2.42915" rx="1.21457" fill="#A855F7"></rect>
<path d="M11.2956 42.3885C11.2956 42.7239 11.0237 42.9958 10.6883 42.9958C10.3529 42.9958 10.0811 42.7239 10.0811 42.3885C10.0811 42.0531 10.3529 41.7812 10.6883 41.7812C11.0237 41.7812 11.2956 42.0531 11.2956 42.3885Z" fill="black"></path>
<rect x="19.9189" y="37.5303" width="2.42915" height="2.42915" rx="1.21457" fill="#A855F7"></rect>
<path d="M21.7409 38.7447C21.7409 39.0801 21.4691 39.352 21.1337 39.352C20.7983 39.352 20.5264 39.0801 20.5264 38.7447C20.5264 38.4093 20.7983 38.1375 21.1337 38.1375C21.4691 38.1375 21.7409 38.4093 21.7409 38.7447Z" fill="black"></path>
<rect x="5.34424" y="29.7571" width="2.42915" height="2.42915" rx="1.21457" fill="#A855F7"></rect>
<path d="M7.16624 30.9715C7.16624 31.3069 6.89434 31.5788 6.55895 31.5788C6.22355 31.5788 5.95166 31.3069 5.95166 30.9715C5.95166 30.6361 6.22355 30.3643 6.55895 30.3643C6.89434 30.3643 7.16624 30.6361 7.16624 30.9715Z" fill="black"></path>
<rect x="18.9473" y="43.3604" width="2.42915" height="2.42915" rx="1.21457" fill="#A855F7"></rect>
<path d="M20.7693 44.5748C20.7693 44.9102 20.4974 45.1821 20.162 45.1821C19.8266 45.1821 19.5547 44.9102 19.5547 44.5748C19.5547 44.2394 19.8266 43.9675 20.162 43.9675C20.4974 43.9675 20.7693 44.2394 20.7693 44.5748Z" fill="black"></path>
<rect x="41.0527" y="27.5708" width="2.42915" height="2.42915" rx="1.21457" fill="#A855F7"></rect>
<path d="M42.8747 28.7853C42.8747 29.1207 42.6028 29.3926 42.2674 29.3926C41.932 29.3926 41.6602 29.1207 41.6602 28.7853C41.6602 28.4499 41.932 28.178 42.2674 28.178C42.6028 28.178 42.8747 28.4499 42.8747 28.7853Z" fill="black"></path>
<rect x="36.8018" y="44.575" width="2.42915" height="2.42915" rx="1.21457" fill="#A855F7"></rect>
<path d="M38.6238 45.7894C38.6238 46.1248 38.3519 46.3967 38.0165 46.3967C37.6811 46.3967 37.4092 46.1248 37.4092 45.7894C37.4092 45.454 37.6811 45.1821 38.0165 45.1821C38.3519 45.1821 38.6238 45.454 38.6238 45.7894Z" fill="black"></path>
<rect x="28.4209" y="57.2065" width="2.42915" height="2.42915" rx="1.21457" fill="#A855F7"></rect>
<path d="M30.2429 58.421C30.2429 58.7564 29.971 59.0283 29.6356 59.0283C29.3002 59.0283 29.0283 58.7564 29.0283 58.421C29.0283 58.0856 29.3002 57.8137 29.6356 57.8137C29.971 57.8137 30.2429 58.0856 30.2429 58.421Z" fill="black"></path>
<rect x="32.7935" y="57.2065" width="2.42915" height="2.42915" rx="1.21457" fill="#A855F7"></rect>
<path d="M34.6155 58.421C34.6155 58.7564 34.3436 59.0283 34.0082 59.0283C33.6728 59.0283 33.4009 58.7564 33.4009 58.421C33.4009 58.0856 33.6728 57.8137 34.0082 57.8137C34.3436 57.8137 34.6155 58.0856 34.6155 58.421Z" fill="black"></path>
<rect x="40.2026" y="54.7773" width="2.42915" height="2.42915" rx="1.21457" fill="#A855F7"></rect>
<path d="M42.0246 55.9918C42.0246 56.3272 41.7527 56.5991 41.4173 56.5991C41.082 56.5991 40.8101 56.3272 40.8101 55.9918C40.8101 55.6564 41.082 55.3845 41.4173 55.3845C41.7527 55.3845 42.0246 55.6564 42.0246 55.9918Z" fill="black"></path>
<rect x="57.085" y="25.6274" width="2.42915" height="2.42915" rx="1.21457" fill="#A855F7"></rect>
<path d="M58.907 26.8419C58.907 27.1773 58.6351 27.4492 58.2997 27.4492C57.9643 27.4492 57.6924 27.1773 57.6924 26.8419C57.6924 26.5065 57.9643 26.2346 58.2997 26.2346C58.6351 26.2346 58.907 26.5065 58.907 26.8419Z" fill="black"></path>
<rect x="55.3848" y="37.2874" width="2.42915" height="2.42915" rx="1.21457" fill="#A855F7"></rect>
<path d="M57.2068 38.5018C57.2068 38.8372 56.9349 39.1091 56.5995 39.1091C56.2641 39.1091 55.9922 38.8372 55.9922 38.5018C55.9922 38.1664 56.2641 37.8945 56.5995 37.8945C56.9349 37.8945 57.2068 38.1664 57.2068 38.5018Z" fill="black"></path>
<rect x="51.3765" y="46.2754" width="2.42915" height="2.42915" rx="1.21457" fill="#A855F7"></rect>
<path d="M53.1985 47.4899C53.1985 47.8253 52.9266 48.0971 52.5912 48.0971C52.2558 48.0971 51.9839 47.8253 51.9839 47.4899C51.9839 47.1545 52.2558 46.8826 52.5912 46.8826C52.9266 46.8826 53.1985 47.1545 53.1985 47.4899Z" fill="black"></path>
<rect x="41.0527" y="48.7043" width="2.42915" height="2.42915" rx="1.21457" fill="#A855F7"></rect>
<path d="M42.8747 49.9188C42.8747 50.2542 42.6028 50.5261 42.2674 50.5261C41.932 50.5261 41.6602 50.2542 41.6602 49.9188C41.6602 49.5834 41.932 49.3115 42.2674 49.3115C42.6028 49.3115 42.8747 49.5834 42.8747 49.9188Z" fill="black"></path>
<rect x="45.4253" y="51.3765" width="2.42915" height="2.42915" rx="1.21457" fill="#A855F7"></rect>
<path d="M47.2473 52.5909C47.2473 52.9263 46.9754 53.1982 46.64 53.1982C46.3046 53.1982 46.0327 52.9263 46.0327 52.5909C46.0327 52.2555 46.3046 51.9836 46.64 51.9836C46.9754 51.9836 47.2473 52.2555 47.2473 52.5909Z" fill="black"></path>
<rect x="49.5547" y="9.10938" width="2.42915" height="2.42915" rx="1.21457" fill="#A855F7"></rect>
<path d="M51.3767 10.3238C51.3767 10.6592 51.1048 10.9311 50.7694 10.9311C50.434 10.9311 50.1621 10.6592 50.1621 10.3238C50.1621 9.98844 50.434 9.71655 50.7694 9.71655C51.1048 9.71655 51.3767 9.98844 51.3767 10.3238Z" fill="black"></path>
<rect x="46.397" y="15.1821" width="2.42915" height="2.42915" rx="1.21457" fill="#A855F7"></rect>
<path d="M48.219 16.3966C48.219 16.732 47.9471 17.0039 47.6117 17.0039C47.2763 17.0039 47.0044 16.732 47.0044 16.3966C47.0044 16.0612 47.2763 15.7893 47.6117 15.7893C47.9471 15.7893 48.219 16.0612 48.219 16.3966Z" fill="black"></path>
<rect x="52.9556" y="14.4534" width="2.42915" height="2.42915" rx="1.21457" fill="#A855F7"></rect>
<path d="M54.7776 15.6678C54.7776 16.0032 54.5057 16.2751 54.1703 16.2751C53.8349 16.2751 53.563 16.0032 53.563 15.6678C53.563 15.3324 53.8349 15.0605 54.1703 15.0605C54.5057 15.0605 54.7776 15.3324 54.7776 15.6678Z" fill="black"></path>
<rect x="55.6274" y="20.0405" width="2.42915" height="2.42915" rx="1.21457" fill="#A855F7"></rect>
<path d="M57.4494 21.255C57.4494 21.5904 57.1775 21.8623 56.8422 21.8623C56.5068 21.8623 56.2349 21.5904 56.2349 21.255C56.2349 20.9196 56.5068 20.6477 56.8422 20.6477C57.1775 20.6477 57.4494 20.9196 57.4494 21.255Z" fill="black"></path>
<rect x="50.0405" y="28.907" width="2.42915" height="2.42915" rx="1.21457" fill="#A855F7"></rect>
<path d="M51.8625 30.1214C51.8625 30.4568 51.5906 30.7287 51.2552 30.7287C50.9198 30.7287 50.6479 30.4568 50.6479 30.1214C50.6479 29.7861 50.9198 29.5142 51.2552 29.5142C51.5906 29.5142 51.8625 29.7861 51.8625 30.1214Z" fill="black"></path>
<rect x="19.4331" y="54.7773" width="2.42915" height="2.42915" rx="1.21457" fill="#A855F7"></rect>
<path d="M21.2551 55.9918C21.2551 56.3272 20.9832 56.5991 20.6478 56.5991C20.3124 56.5991 20.0405 56.3272 20.0405 55.9918C20.0405 55.6564 20.3124 55.3845 20.6478 55.3845C20.9832 55.3845 21.2551 55.6564 21.2551 55.9918Z" fill="black"></path>
<rect x="15.3037" y="53.4414" width="2.42915" height="2.42915" rx="1.21457" fill="#A855F7"></rect>
<path d="M17.1257 54.6559C17.1257 54.9913 16.8538 55.2632 16.5184 55.2632C16.183 55.2632 15.9111 54.9913 15.9111 54.6559C15.9111 54.3205 16.183 54.0486 16.5184 54.0486C16.8538 54.0486 17.1257 54.3205 17.1257 54.6559Z" fill="black"></path>
<rect x="38.3804" y="2.18628" width="2.42915" height="2.42915" rx="1.21457" fill="#A855F7"></rect>
<path d="M40.2024 3.40074C40.2024 3.73614 39.9305 4.00803 39.5951 4.00803C39.2597 4.00803 38.9878 3.73614 38.9878 3.40074C38.9878 3.06535 39.2597 2.79346 39.5951 2.79346C39.9305 2.79346 40.2024 3.06535 40.2024 3.40074Z" fill="black"></path>
<rect x="43.9678" y="5.10132" width="2.42915" height="2.42915" rx="1.21457" fill="#A855F7"></rect>
<path d="M45.7898 6.31578C45.7898 6.65118 45.5179 6.92307 45.1825 6.92307C44.8471 6.92307 44.5752 6.65118 44.5752 6.31578C44.5752 5.98039 44.8471 5.7085 45.1825 5.7085C45.5179 5.7085 45.7898 5.98039 45.7898 6.31578Z" fill="black"></path>
<rect x="3.88672" y="42.7529" width="2.42915" height="2.42915" rx="1.21457" fill="#A855F7"></rect>
<path d="M5.70872 43.9674C5.70872 44.3028 5.43682 44.5747 5.10143 44.5747C4.76603 44.5747 4.49414 44.3028 4.49414 43.9674C4.49414 43.632 4.76603 43.3601 5.10143 43.3601C5.43682 43.3601 5.70872 43.632 5.70872 43.9674Z" fill="black"></path>
<rect x="10.4453" y="49.3118" width="2.42915" height="2.42915" rx="1.21457" fill="#A855F7"></rect>
<path d="M12.2673 50.5262C12.2673 50.8616 11.9954 51.1335 11.66 51.1335C11.3246 51.1335 11.0527 50.8616 11.0527 50.5262C11.0527 50.1908 11.3246 49.9189 11.66 49.9189C11.9954 49.9189 12.2673 50.1908 12.2673 50.5262Z" fill="black"></path>
<rect x="2.4292" y="20.1619" width="2.42915" height="2.42915" rx="1.21457" fill="#A855F7"></rect>
<path d="M4.2512 21.3763C4.2512 21.7117 3.9793 21.9836 3.64391 21.9836C3.30851 21.9836 3.03662 21.7117 3.03662 21.3763C3.03662 21.0409 3.30851 20.769 3.64391 20.769C3.9793 20.769 4.2512 21.0409 4.2512 21.3763Z" fill="black"></path>
<rect x="4.12939" y="14.0891" width="2.42915" height="2.42915" rx="1.21457" fill="#A855F7"></rect>
<path d="M5.95139 15.3036C5.95139 15.639 5.6795 15.9109 5.3441 15.9109C5.00871 15.9109 4.73682 15.639 4.73682 15.3036C4.73682 14.9682 5.00871 14.6963 5.3441 14.6963C5.6795 14.6963 5.95139 14.9682 5.95139 15.3036Z" fill="black"></path>
<rect x="29.3926" y="0.24292" width="2.42915" height="2.42915" rx="1.21457" fill="#A855F7"></rect>
<path d="M31.2146 1.45739C31.2146 1.79278 30.9427 2.06467 30.6073 2.06467C30.2719 2.06467 30 1.79278 30 1.45739C30 1.12199 30.2719 0.850098 30.6073 0.850098C30.9427 0.850098 31.2146 1.12199 31.2146 1.45739Z" fill="black"></path>
<rect x="24.0488" y="9.23071" width="2.42915" height="2.42915" rx="1.21457" fill="#A855F7"></rect>
<path d="M25.8708 10.4452C25.8708 10.7806 25.5989 11.0525 25.2635 11.0525C24.9281 11.0525 24.6562 10.7806 24.6562 10.4452C24.6562 10.1098 24.9281 9.83789 25.2635 9.83789C25.5989 9.83789 25.8708 10.1098 25.8708 10.4452Z" fill="black"></path>
<rect x="0.242676" y="26.1133" width="2.42915" height="2.42915" rx="1.21457" fill="#A855F7"></rect>
<path d="M2.06467 27.3277C2.06467 27.6631 1.79278 27.935 1.45739 27.935C1.12199 27.935 0.850098 27.6631 0.850098 27.3277C0.850098 26.9924 1.12199 26.7205 1.45739 26.7205C1.79278 26.7205 2.06467 26.9924 2.06467 27.3277Z" fill="black"></path>
<rect x="22.1055" y="0.121338" width="2.42915" height="2.42915" rx="1.21457" fill="#A855F7"></rect>
<path d="M23.9275 1.3358C23.9275 1.6712 23.6556 1.94309 23.3202 1.94309C22.9848 1.94309 22.7129 1.6712 22.7129 1.3358C22.7129 1.00041 22.9848 0.728516 23.3202 0.728516C23.6556 0.728516 23.9275 1.00041 23.9275 1.3358Z" fill="black"></path>
</svg></svg></g></g></svg></g><g id="dark-icon"><svg xmlns="http://www.w3.org/2000/svg" version="1.1" xmlns:xlink="http://www.w3.org/1999/xlink" xmlns:svgjs="http://svgjs.dev/svgjs" width="1000" height="1000"><g clip-path="url(#SvgjsClipPath1312)"><rect width="1000" height="1000" fill="#ffffff"></rect><g transform="matrix(13.333333333333334,0,0,13.333333333333334,100,100)"><svg xmlns="http://www.w3.org/2000/svg" version="1.1" xmlns:xlink="http://www.w3.org/1999/xlink" xmlns:svgjs="http://svgjs.dev/svgjs" width="60" height="60"><svg width="60" height="60" viewBox="0 0 60 60" fill="none" xmlns="http://www.w3.org/2000/svg">
<path fill-rule="evenodd" clip-rule="evenodd" d="M34.2428 6.08479L30.1839 2.13565L31.0309 1.26514L35.9599 6.06094L31.1069 11.0526H25.2633V9.83805H30.5938L34.2428 6.08479ZM26.5187 5.51443L23.3608 2.11362L24.2508 1.28717L27.4087 4.68798L26.5187 5.51443ZM17.6115 3.27934H18.8261V16.0135L22.8327 19.7976H31.1049L38.5022 27.3223V46.0324H37.2876V27.8194L30.5958 21.0121H22.3498L17.6115 16.5371V16.2753H18.2188C17.6115 16.2753 17.6115 16.2754 17.6115 16.2753V3.27934ZM39.9597 3.27934V7.9064L32.4349 15.3036H25.2633V14.0891H31.9379L38.7451 7.39722V3.27934H39.9597ZM44.6965 12.9945V6.55869H45.9111V13.4832L42.9961 16.5196V28.7854H41.7815V16.031L44.6965 12.9945ZM9.78179 9.16572L12.8746 12.2586V16.001L17.77 20.3135L16.9671 21.2249L11.6601 16.5496V12.7617L8.92295 10.0246L9.78179 9.16572ZM51.2552 10.4453V13.4705L48.0645 17.0441L47.1585 16.2352L50.0406 13.0072V10.4453H51.2552ZM38.3474 13.9945L39.1428 14.9124L37.3373 16.4771L37.2876 16.5268V18.6958L38.9316 20.3398L38.0728 21.1986L36.073 19.1989V16.0237L36.5091 15.5876L38.3474 13.9945ZM15.5575 24.7773L5.89777 14.9983L5.03369 15.8519L15.0501 25.9919H28.5299L33.401 30.9762V41.6599H34.6155V30.4813L29.0412 24.7773H15.5575ZM53.8693 15.3531L54.714 16.2259L47.3686 23.3343V31.8351L42.6317 36.4505V50.0405H41.4171V35.9381L46.154 31.3228V22.8195L53.8693 15.3531ZM2.98618 21.6986L3.81573 20.8115L12.9929 29.3927H25.2633V30.6073H12.5135L2.98618 21.6986ZM56.4128 20.8256L57.2717 21.6845L51.741 27.2151V30H50.5265V26.712L56.4128 20.8256ZM57.2014 28.9207L58.7292 27.393L57.8703 26.5341L55.9973 28.4072L55.8831 33.8866H50.6497L46.0325 38.2399V52.834H47.2471V38.7641L51.132 35.1012H57.0726L57.2014 28.9207ZM2.30784 33.0586V27.5708H1.09326V33.5001L5.00023 38.1633L5.93123 37.3833L2.30784 33.0586ZM19.6075 45.122L5.88277 31.1544L6.7491 30.3031L20.4738 44.2707L19.6075 45.122ZM16.6398 33.8866H21.8625V38.7449H20.6479V35.1012H16.6398V33.8866ZM29.0285 52.5786V34.4939H30.2431V53.0894L25.416 57.8138H29.6358V59.0283H22.4386L29.0285 52.5786ZM24.7775 51.0123V35.587H25.992V51.4977L21.0879 56.6534L20.2079 55.8163L24.7775 51.0123ZM51.962 38.1376H56.5993V39.3522H52.4917L51.2552 40.6838V45.5493L52.9128 47.3174L52.0267 48.1481L50.0406 46.0296V40.2069L51.962 38.1376ZM11.2363 42.1992L20.3775 51.2134L17.1077 55.1645L16.172 54.3901L18.7321 51.2967L10.3835 43.064L11.2363 42.1992ZM10.9922 50.4743L5.04076 44.6443L5.8907 43.7767L11.8421 49.6067L10.9922 50.4743ZM33.401 47.6199L41.7215 55.8018L40.8699 56.6678L34.6155 50.5177V58.421H33.401V47.6199Z" fill="#A855F7"></path>
<rect x="24.1699" y="13.2388" width="2.42915" height="2.42915" rx="1.21457" fill="#A855F7"></rect>
<path d="M25.9919 14.4532C25.9919 14.7886 25.72 15.0605 25.3846 15.0605C25.0492 15.0605 24.7773 14.7886 24.7773 14.4532C24.7773 14.1178 25.0492 13.8459 25.3846 13.8459C25.72 13.8459 25.9919 14.1178 25.9919 14.4532Z" fill="black"></path>
<rect x="37.4087" y="12.9958" width="2.42915" height="2.42915" rx="1.21457" fill="#A855F7"></rect>
<path d="M39.2307 14.2103C39.2307 14.5457 38.9588 14.8176 38.6234 14.8176C38.288 14.8176 38.0161 14.5457 38.0161 14.2103C38.0161 13.8749 38.288 13.603 38.6234 13.603C38.9588 13.603 39.2307 13.8749 39.2307 14.2103Z" fill="black"></path>
<rect x="37.4087" y="19.5547" width="2.42915" height="2.42915" rx="1.21457" fill="#A855F7"></rect>
<path d="M39.2307 20.7692C39.2307 21.1045 38.9588 21.3764 38.6234 21.3764C38.288 21.3764 38.0161 21.1045 38.0161 20.7692C38.0161 20.4338 38.288 20.1619 38.6234 20.1619C38.9588 20.1619 39.2307 20.4338 39.2307 20.7692Z" fill="black"></path>
<rect x="26.1133" y="4.00806" width="2.42915" height="2.42915" rx="1.21457" fill="#A855F7"></rect>
<path d="M27.9353 5.22252C27.9353 5.55792 27.6634 5.82981 27.328 5.82981C26.9926 5.82981 26.7207 5.55792 26.7207 5.22252C26.7207 4.88713 26.9926 4.61523 27.328 4.61523C27.6634 4.61523 27.9353 4.88713 27.9353 5.22252Z" fill="black"></path>
<rect x="16.0322" y="19.3118" width="2.42915" height="2.42915" rx="1.21457" fill="#A855F7"></rect>
<path d="M17.8542 20.5262C17.8542 20.8616 17.5823 21.1335 17.2469 21.1335C16.9115 21.1335 16.6396 20.8616 16.6396 20.5262C16.6396 20.1908 16.9115 19.9189 17.2469 19.9189C17.5823 19.9189 17.8542 20.1908 17.8542 20.5262Z" fill="black"></path>
<rect x="32.7935" y="40.2024" width="2.42915" height="2.42915" rx="1.21457" fill="#A855F7"></rect>
<path d="M34.6155 41.4169C34.6155 41.7523 34.3436 42.0241 34.0082 42.0241C33.6728 42.0241 33.4009 41.7523 33.4009 41.4169C33.4009 41.0815 33.6728 40.8096 34.0082 40.8096C34.3436 40.8096 34.6155 41.0815 34.6155 41.4169Z" fill="black"></path>
<rect x="17.1255" y="1.82178" width="2.42915" height="2.42915" rx="1.21457" fill="#A855F7"></rect>
<path d="M18.9475 3.03624C18.9475 3.37164 18.6756 3.64353 18.3402 3.64353C18.0048 3.64353 17.7329 3.37164 17.7329 3.03624C17.7329 2.70085 18.0048 2.42896 18.3402 2.42896C18.6756 2.42896 18.9475 2.70085 18.9475 3.03624Z" fill="black"></path>
<rect x="8.38037" y="8.1377" width="2.42915" height="2.42915" rx="1.21457" fill="#A855F7"></rect>
<path d="M10.2024 9.35216C10.2024 9.68756 9.93048 9.95945 9.59508 9.95945C9.25968 9.95945 8.98779 9.68756 8.98779 9.35216C8.98779 9.01676 9.25968 8.74487 9.59508 8.74487C9.93048 8.74487 10.2024 9.01676 10.2024 9.35216Z" fill="black"></path>
<rect x="28.5425" y="33.158" width="2.42915" height="2.42915" rx="1.21457" fill="#A855F7"></rect>
<path d="M30.3645 34.3724C30.3645 34.7078 30.0926 34.9797 29.7572 34.9797C29.4218 34.9797 29.1499 34.7078 29.1499 34.3724C29.1499 34.037 29.4218 33.7651 29.7572 33.7651C30.0926 33.7651 30.3645 34.037 30.3645 34.3724Z" fill="black"></path>
<rect x="24.1699" y="34.3726" width="2.42915" height="2.42915" rx="1.21457" fill="#A855F7"></rect>
<path d="M25.9919 35.587C25.9919 35.9224 25.72 36.1943 25.3846 36.1943C25.0492 36.1943 24.7773 35.9224 24.7773 35.587C24.7773 35.2516 25.0492 34.9797 25.3846 34.9797C25.72 34.9797 25.9919 35.2516 25.9919 35.587Z" fill="black"></path>
<rect x="24.0488" y="28.7854" width="2.42915" height="2.42915" rx="1.21457" fill="#A855F7"></rect>
<path d="M25.8708 29.9999C25.8708 30.3353 25.5989 30.6072 25.2635 30.6072C24.9281 30.6072 24.6562 30.3353 24.6562 29.9999C24.6562 29.6645 24.9281 29.3926 25.2635 29.3926C25.5989 29.3926 25.8708 29.6645 25.8708 29.9999Z" fill="black"></path>
<rect x="15.5464" y="33.158" width="2.42915" height="2.42915" rx="1.21457" fill="#A855F7"></rect>
<path d="M17.3684 34.3724C17.3684 34.7078 17.0965 34.9797 16.7611 34.9797C16.4257 34.9797 16.1538 34.7078 16.1538 34.3724C16.1538 34.037 16.4257 33.7651 16.7611 33.7651C17.0965 33.7651 17.3684 34.037 17.3684 34.3724Z" fill="black"></path>
<rect x="4.8584" y="36.5586" width="2.42915" height="2.42915" rx="1.21457" fill="#A855F7"></rect>
<path d="M6.6804 37.7731C6.6804 38.1085 6.4085 38.3803 6.07311 38.3803C5.73771 38.3803 5.46582 38.1085 5.46582 37.7731C5.46582 37.4377 5.73771 37.1658 6.07311 37.1658C6.4085 37.1658 6.6804 37.4377 6.6804 37.7731Z" fill="black"></path>
<rect x="9.47363" y="41.1741" width="2.42915" height="2.42915" rx="1.21457" fill="#A855F7"></rect>
<path d="M11.2956 42.3885C11.2956 42.7239 11.0237 42.9958 10.6883 42.9958C10.3529 42.9958 10.0811 42.7239 10.0811 42.3885C10.0811 42.0531 10.3529 41.7812 10.6883 41.7812C11.0237 41.7812 11.2956 42.0531 11.2956 42.3885Z" fill="black"></path>
<rect x="19.9189" y="37.5303" width="2.42915" height="2.42915" rx="1.21457" fill="#A855F7"></rect>
<path d="M21.7409 38.7447C21.7409 39.0801 21.4691 39.352 21.1337 39.352C20.7983 39.352 20.5264 39.0801 20.5264 38.7447C20.5264 38.4093 20.7983 38.1375 21.1337 38.1375C21.4691 38.1375 21.7409 38.4093 21.7409 38.7447Z" fill="black"></path>
<rect x="5.34424" y="29.7571" width="2.42915" height="2.42915" rx="1.21457" fill="#A855F7"></rect>
<path d="M7.16624 30.9715C7.16624 31.3069 6.89434 31.5788 6.55895 31.5788C6.22355 31.5788 5.95166 31.3069 5.95166 30.9715C5.95166 30.6361 6.22355 30.3643 6.55895 30.3643C6.89434 30.3643 7.16624 30.6361 7.16624 30.9715Z" fill="black"></path>
<rect x="18.9473" y="43.3604" width="2.42915" height="2.42915" rx="1.21457" fill="#A855F7"></rect>
<path d="M20.7693 44.5748C20.7693 44.9102 20.4974 45.1821 20.162 45.1821C19.8266 45.1821 19.5547 44.9102 19.5547 44.5748C19.5547 44.2394 19.8266 43.9675 20.162 43.9675C20.4974 43.9675 20.7693 44.2394 20.7693 44.5748Z" fill="black"></path>
<rect x="41.0527" y="27.5708" width="2.42915" height="2.42915" rx="1.21457" fill="#A855F7"></rect>
<path d="M42.8747 28.7853C42.8747 29.1207 42.6028 29.3926 42.2674 29.3926C41.932 29.3926 41.6602 29.1207 41.6602 28.7853C41.6602 28.4499 41.932 28.178 42.2674 28.178C42.6028 28.178 42.8747 28.4499 42.8747 28.7853Z" fill="black"></path>
<rect x="36.8018" y="44.575" width="2.42915" height="2.42915" rx="1.21457" fill="#A855F7"></rect>
<path d="M38.6238 45.7894C38.6238 46.1248 38.3519 46.3967 38.0165 46.3967C37.6811 46.3967 37.4092 46.1248 37.4092 45.7894C37.4092 45.454 37.6811 45.1821 38.0165 45.1821C38.3519 45.1821 38.6238 45.454 38.6238 45.7894Z" fill="black"></path>
<rect x="28.4209" y="57.2065" width="2.42915" height="2.42915" rx="1.21457" fill="#A855F7"></rect>
<path d="M30.2429 58.421C30.2429 58.7564 29.971 59.0283 29.6356 59.0283C29.3002 59.0283 29.0283 58.7564 29.0283 58.421C29.0283 58.0856 29.3002 57.8137 29.6356 57.8137C29.971 57.8137 30.2429 58.0856 30.2429 58.421Z" fill="black"></path>
<rect x="32.7935" y="57.2065" width="2.42915" height="2.42915" rx="1.21457" fill="#A855F7"></rect>
<path d="M34.6155 58.421C34.6155 58.7564 34.3436 59.0283 34.0082 59.0283C33.6728 59.0283 33.4009 58.7564 33.4009 58.421C33.4009 58.0856 33.6728 57.8137 34.0082 57.8137C34.3436 57.8137 34.6155 58.0856 34.6155 58.421Z" fill="black"></path>
<rect x="40.2026" y="54.7773" width="2.42915" height="2.42915" rx="1.21457" fill="#A855F7"></rect>
<path d="M42.0246 55.9918C42.0246 56.3272 41.7527 56.5991 41.4173 56.5991C41.082 56.5991 40.8101 56.3272 40.8101 55.9918C40.8101 55.6564 41.082 55.3845 41.4173 55.3845C41.7527 55.3845 42.0246 55.6564 42.0246 55.9918Z" fill="black"></path>
<rect x="57.085" y="25.6274" width="2.42915" height="2.42915" rx="1.21457" fill="#A855F7"></rect>
<path d="M58.907 26.8419C58.907 27.1773 58.6351 27.4492 58.2997 27.4492C57.9643 27.4492 57.6924 27.1773 57.6924 26.8419C57.6924 26.5065 57.9643 26.2346 58.2997 26.2346C58.6351 26.2346 58.907 26.5065 58.907 26.8419Z" fill="black"></path>
<rect x="55.3848" y="37.2874" width="2.42915" height="2.42915" rx="1.21457" fill="#A855F7"></rect>
<path d="M57.2068 38.5018C57.2068 38.8372 56.9349 39.1091 56.5995 39.1091C56.2641 39.1091 55.9922 38.8372 55.9922 38.5018C55.9922 38.1664 56.2641 37.8945 56.5995 37.8945C56.9349 37.8945 57.2068 38.1664 57.2068 38.5018Z" fill="black"></path>
<rect x="51.3765" y="46.2754" width="2.42915" height="2.42915" rx="1.21457" fill="#A855F7"></rect>
<path d="M53.1985 47.4899C53.1985 47.8253 52.9266 48.0971 52.5912 48.0971C52.2558 48.0971 51.9839 47.8253 51.9839 47.4899C51.9839 47.1545 52.2558 46.8826 52.5912 46.8826C52.9266 46.8826 53.1985 47.1545 53.1985 47.4899Z" fill="black"></path>
<rect x="41.0527" y="48.7043" width="2.42915" height="2.42915" rx="1.21457" fill="#A855F7"></rect>
<path d="M42.8747 49.9188C42.8747 50.2542 42.6028 50.5261 42.2674 50.5261C41.932 50.5261 41.6602 50.2542 41.6602 49.9188C41.6602 49.5834 41.932 49.3115 42.2674 49.3115C42.6028 49.3115 42.8747 49.5834 42.8747 49.9188Z" fill="black"></path>
<rect x="45.4253" y="51.3765" width="2.42915" height="2.42915" rx="1.21457" fill="#A855F7"></rect>
<path d="M47.2473 52.5909C47.2473 52.9263 46.9754 53.1982 46.64 53.1982C46.3046 53.1982 46.0327 52.9263 46.0327 52.5909C46.0327 52.2555 46.3046 51.9836 46.64 51.9836C46.9754 51.9836 47.2473 52.2555 47.2473 52.5909Z" fill="black"></path>
<rect x="49.5547" y="9.10938" width="2.42915" height="2.42915" rx="1.21457" fill="#A855F7"></rect>
<path d="M51.3767 10.3238C51.3767 10.6592 51.1048 10.9311 50.7694 10.9311C50.434 10.9311 50.1621 10.6592 50.1621 10.3238C50.1621 9.98844 50.434 9.71655 50.7694 9.71655C51.1048 9.71655 51.3767 9.98844 51.3767 10.3238Z" fill="black"></path>
<rect x="46.397" y="15.1821" width="2.42915" height="2.42915" rx="1.21457" fill="#A855F7"></rect>
<path d="M48.219 16.3966C48.219 16.732 47.9471 17.0039 47.6117 17.0039C47.2763 17.0039 47.0044 16.732 47.0044 16.3966C47.0044 16.0612 47.2763 15.7893 47.6117 15.7893C47.9471 15.7893 48.219 16.0612 48.219 16.3966Z" fill="black"></path>
<rect x="52.9556" y="14.4534" width="2.42915" height="2.42915" rx="1.21457" fill="#A855F7"></rect>
<path d="M54.7776 15.6678C54.7776 16.0032 54.5057 16.2751 54.1703 16.2751C53.8349 16.2751 53.563 16.0032 53.563 15.6678C53.563 15.3324 53.8349 15.0605 54.1703 15.0605C54.5057 15.0605 54.7776 15.3324 54.7776 15.6678Z" fill="black"></path>
<rect x="55.6274" y="20.0405" width="2.42915" height="2.42915" rx="1.21457" fill="#A855F7"></rect>
<path d="M57.4494 21.255C57.4494 21.5904 57.1775 21.8623 56.8422 21.8623C56.5068 21.8623 56.2349 21.5904 56.2349 21.255C56.2349 20.9196 56.5068 20.6477 56.8422 20.6477C57.1775 20.6477 57.4494 20.9196 57.4494 21.255Z" fill="black"></path>
<rect x="50.0405" y="28.907" width="2.42915" height="2.42915" rx="1.21457" fill="#A855F7"></rect>
<path d="M51.8625 30.1214C51.8625 30.4568 51.5906 30.7287 51.2552 30.7287C50.9198 30.7287 50.6479 30.4568 50.6479 30.1214C50.6479 29.7861 50.9198 29.5142 51.2552 29.5142C51.5906 29.5142 51.8625 29.7861 51.8625 30.1214Z" fill="black"></path>
<rect x="19.4331" y="54.7773" width="2.42915" height="2.42915" rx="1.21457" fill="#A855F7"></rect>
<path d="M21.2551 55.9918C21.2551 56.3272 20.9832 56.5991 20.6478 56.5991C20.3124 56.5991 20.0405 56.3272 20.0405 55.9918C20.0405 55.6564 20.3124 55.3845 20.6478 55.3845C20.9832 55.3845 21.2551 55.6564 21.2551 55.9918Z" fill="black"></path>
<rect x="15.3037" y="53.4414" width="2.42915" height="2.42915" rx="1.21457" fill="#A855F7"></rect>
<path d="M17.1257 54.6559C17.1257 54.9913 16.8538 55.2632 16.5184 55.2632C16.183 55.2632 15.9111 54.9913 15.9111 54.6559C15.9111 54.3205 16.183 54.0486 16.5184 54.0486C16.8538 54.0486 17.1257 54.3205 17.1257 54.6559Z" fill="black"></path>
<rect x="38.3804" y="2.18628" width="2.42915" height="2.42915" rx="1.21457" fill="#A855F7"></rect>
<path d="M40.2024 3.40074C40.2024 3.73614 39.9305 4.00803 39.5951 4.00803C39.2597 4.00803 38.9878 3.73614 38.9878 3.40074C38.9878 3.06535 39.2597 2.79346 39.5951 2.79346C39.9305 2.79346 40.2024 3.06535 40.2024 3.40074Z" fill="black"></path>
<rect x="43.9678" y="5.10132" width="2.42915" height="2.42915" rx="1.21457" fill="#A855F7"></rect>
<path d="M45.7898 6.31578C45.7898 6.65118 45.5179 6.92307 45.1825 6.92307C44.8471 6.92307 44.5752 6.65118 44.5752 6.31578C44.5752 5.98039 44.8471 5.7085 45.1825 5.7085C45.5179 5.7085 45.7898 5.98039 45.7898 6.31578Z" fill="black"></path>
<rect x="3.88672" y="42.7529" width="2.42915" height="2.42915" rx="1.21457" fill="#A855F7"></rect>
<path d="M5.70872 43.9674C5.70872 44.3028 5.43682 44.5747 5.10143 44.5747C4.76603 44.5747 4.49414 44.3028 4.49414 43.9674C4.49414 43.632 4.76603 43.3601 5.10143 43.3601C5.43682 43.3601 5.70872 43.632 5.70872 43.9674Z" fill="black"></path>
<rect x="10.4453" y="49.3118" width="2.42915" height="2.42915" rx="1.21457" fill="#A855F7"></rect>
<path d="M12.2673 50.5262C12.2673 50.8616 11.9954 51.1335 11.66 51.1335C11.3246 51.1335 11.0527 50.8616 11.0527 50.5262C11.0527 50.1908 11.3246 49.9189 11.66 49.9189C11.9954 49.9189 12.2673 50.1908 12.2673 50.5262Z" fill="black"></path>
<rect x="2.4292" y="20.1619" width="2.42915" height="2.42915" rx="1.21457" fill="#A855F7"></rect>
<path d="M4.2512 21.3763C4.2512 21.7117 3.9793 21.9836 3.64391 21.9836C3.30851 21.9836 3.03662 21.7117 3.03662 21.3763C3.03662 21.0409 3.30851 20.769 3.64391 20.769C3.9793 20.769 4.2512 21.0409 4.2512 21.3763Z" fill="black"></path>
<rect x="4.12939" y="14.0891" width="2.42915" height="2.42915" rx="1.21457" fill="#A855F7"></rect>
<path d="M5.95139 15.3036C5.95139 15.639 5.6795 15.9109 5.3441 15.9109C5.00871 15.9109 4.73682 15.639 4.73682 15.3036C4.73682 14.9682 5.00871 14.6963 5.3441 14.6963C5.6795 14.6963 5.95139 14.9682 5.95139 15.3036Z" fill="black"></path>
<rect x="29.3926" y="0.24292" width="2.42915" height="2.42915" rx="1.21457" fill="#A855F7"></rect>
<path d="M31.2146 1.45739C31.2146 1.79278 30.9427 2.06467 30.6073 2.06467C30.2719 2.06467 30 1.79278 30 1.45739C30 1.12199 30.2719 0.850098 30.6073 0.850098C30.9427 0.850098 31.2146 1.12199 31.2146 1.45739Z" fill="black"></path>
<rect x="24.0488" y="9.23071" width="2.42915" height="2.42915" rx="1.21457" fill="#A855F7"></rect>
<path d="M25.8708 10.4452C25.8708 10.7806 25.5989 11.0525 25.2635 11.0525C24.9281 11.0525 24.6562 10.7806 24.6562 10.4452C24.6562 10.1098 24.9281 9.83789 25.2635 9.83789C25.5989 9.83789 25.8708 10.1098 25.8708 10.4452Z" fill="black"></path>
<rect x="0.242676" y="26.1133" width="2.42915" height="2.42915" rx="1.21457" fill="#A855F7"></rect>
<path d="M2.06467 27.3277C2.06467 27.6631 1.79278 27.935 1.45739 27.935C1.12199 27.935 0.850098 27.6631 0.850098 27.3277C0.850098 26.9924 1.12199 26.7205 1.45739 26.7205C1.79278 26.7205 2.06467 26.9924 2.06467 27.3277Z" fill="black"></path>
<rect x="22.1055" y="0.121338" width="2.42915" height="2.42915" rx="1.21457" fill="#A855F7"></rect>
<path d="M23.9275 1.3358C23.9275 1.6712 23.6556 1.94309 23.3202 1.94309C22.9848 1.94309 22.7129 1.6712 22.7129 1.3358C22.7129 1.00041 22.9848 0.728516 23.3202 0.728516C23.6556 0.728516 23.9275 1.00041 23.9275 1.3358Z" fill="black"></path>
</svg></svg></g></g><defs><clipPath id="SvgjsClipPath1312"><rect width="1000" height="1000" x="0" y="0" rx="250" ry="250"></rect></clipPath></defs></svg></g></svg>